<svg id="Logo_Klarr" xmlns="http://www.w3.org/2000/svg" viewBox="0 0 683.25 183.65"><title>Klarr_Logo_Blanc_RVB</title><path d="M98.08,451.82,27.25,381a29.25,29.25,0,0,1,0-42l70.83-70.83a40.37,40.37,0,0,1,0,57.34L74.7,349.08A15.25,15.25,0,0,0,69.92,360a15.56,15.56,0,0,0,4.78,10.92l23.38,23.56a40.37,40.37,0,0,1,0,57.34Z" transform="translate(-18.37 -268.18)" style="fill:#fff"/><path d="M155.19,388.43A28.41,28.41,0,1,0,127,359.82,28.41,28.41,0,0,0,155.19,388.43Z" transform="translate(-18.37 -268.18)" style="fill:#fff"/><path d="M317.71,425l-46.34-52.37V425h-30.7V293.13h30.7v51.61l43.33-51.61h38.05l-55.57,64.61L357.84,425Z" transform="translate(-18.37 -268.18)" style="fill:#fff"/><path d="M366.31,293.13h29.58V425H366.31Z" transform="translate(-18.37 -268.18)" style="fill:#fff"/><path d="M515.7,331.93V425H490.08l-1.89-11.11c-7.72,8.47-18.27,13-30.89,13-26.18,0-44.46-19.78-44.46-48.41s18.28-48.41,44.46-48.41c12.62,0,23.36,4.52,30.89,12.81l1.89-10.93Zm-29.2,46.53c0-13.94-9-23.55-22.23-23.55-13,0-22,9.61-22,23.55s9,23.55,22,23.55C477.46,402,486.5,392.4,486.5,378.46Z" transform="translate(-18.37 -268.18)" style="fill:#fff"/><path d="M614.78,339.09l-12.43,21.66c-5.27-3.39-9.42-4.71-14.5-4.71-12.25,0-20.35,7.92-20.35,23.74V425H537.93V331.93h25.8L566,343.61c6.41-9.79,15.26-13.75,24.87-13.75C599.15,329.86,608.38,332.87,614.78,339.09Z" transform="translate(-18.37 -268.18)" style="fill:#fff"/><path d="M701.63,339.09l-12.44,21.66c-5.27-3.39-9.42-4.71-14.5-4.71-12.25,0-20.35,7.92-20.35,23.74V425H624.77V331.93h25.81l2.26,11.68c6.4-9.79,15.25-13.75,24.86-13.75C686,329.86,695.22,332.87,701.63,339.09Z" transform="translate(-18.37 -268.18)" style="fill:#fff"/></svg>