<svg xmlns="http://www.w3.org/2000/svg" viewBox="0 0 402.65 181.2"><defs><style>.cls-1{fill:#cdcdd1;}.cls-2{fill:#fcfcfc;}.cls-3,.cls-5,.cls-6{fill:#161719;}.cls-3{opacity:0.1;}.cls-4{fill:#e51d4b;}.cls-6{opacity:0.2;}</style></defs><g id="Layer_2" data-name="Layer 2"><g id="White_Logo" data-name="White Logo"><path id="Filling" class="cls-1" d="M88.35,111v44.29a16.13,16.13,0,0,1-.31,3.13A15.88,15.88,0,0,1,72.46,171.2H25.89A15.89,15.89,0,0,1,10,155.32V111a34.05,34.05,0,0,1,3-13.89s0,0,0,0a32.15,32.15,0,0,1,1.48-2.93l8-14.09A11.16,11.16,0,0,0,24,74.57V66.7a9.76,9.76,0,0,1-7.11-9.39v-.22a9.75,9.75,0,0,1,9.75-9.75H71.76a9.76,9.76,0,0,1,9.75,9.75v.22A9.76,9.76,0,0,1,74.4,66.7v7.89a11.15,11.15,0,0,0,1.46,5.53l8,14.07A34.14,34.14,0,0,1,88.35,111Z"/><path id="Milk" class="cls-2" d="M88,158.45A15.88,15.88,0,0,1,72.46,171.2H25.89A15.85,15.85,0,0,1,13,164.56V97.12H25.64a30.14,30.14,0,0,1,17.47,5.59,19.34,19.34,0,0,0,12.85,2l.83-.16a51,51,0,0,1,15.74-2.49H85.94c.18.52.33,1,.46,1.43h.76Z"/><path class="cls-3" d="M33.16,127.63h0a9.69,9.69,0,0,1,9.69,9.69V169.2a0,0,0,0,1,0,0H23.47a0,0,0,0,1,0,0V137.32A9.69,9.69,0,0,1,33.16,127.63Z"/><path class="cls-3" d="M55.5,127.63H74.88a0,0,0,0,1,0,0v31.88a9.69,9.69,0,0,1-9.69,9.69h0a9.69,9.69,0,0,1-9.69-9.69V127.63A0,0,0,0,1,55.5,127.63Z" transform="translate(130.38 296.84) rotate(-180)"/><g id="Straw"><path id="Filling-2" data-name="Filling" class="cls-2" d="M96.46,23.44l-12.11,2-16.14,2.7-3.79.63a2.73,2.73,0,0,0-2.19,1.94l-.63,2.15L56.83,49.24l-4,13.64L48.08,79.24l-4,13.64-4.77,16.36-4.82,16.53a4.76,4.76,0,0,1-9.13-2.67l4-13.86,4.77-16.36,4-13.64,4.77-16.36,4-13.64,4.77-16.36,1.52-5.21a11.61,11.61,0,0,1,9.23-8.2L67,18.71,83.13,16l11.77-2a5.22,5.22,0,0,1,.78-.06,4.75,4.75,0,0,1,.78,9.44Z"/><path class="cls-4" d="M44.1,92.88l-2.56,8.79A30.06,30.06,0,0,0,32.71,98l1.48-5.09Z"/><polygon id="Detail" class="cls-4" points="52.85 62.88 48.08 79.24 38.17 79.24 42.94 62.88 52.85 62.88"/><polygon id="Detail-2" data-name="Detail" class="cls-4" points="61.6 32.88 56.83 49.24 46.92 49.24 51.69 32.88 61.6 32.88"/><polygon id="Detail-3" data-name="Detail" class="cls-4" points="84.35 25.46 68.21 28.16 66.99 18.71 83.13 16.02 84.35 25.46"/></g><path id="White_Outline" data-name="White Outline" class="cls-2" d="M25.89,181.2A25.91,25.91,0,0,1,0,155.32V111a44.25,44.25,0,0,1,5.77-21.8l8-14.06a1.2,1.2,0,0,0,.15-.59v-2.1A19.7,19.7,0,0,1,6.84,57.32v-.23A19.77,19.77,0,0,1,26.59,37.34h9.22l4-13.59A25.77,25.77,0,0,1,60.14,5.66C84.84,1.55,90.86.54,92.49.29A1.55,1.55,0,0,1,92.8.23,18.19,18.19,0,0,1,95.68,0a18.76,18.76,0,0,1,3.08,37.26l-17,2.83a19.78,19.78,0,0,1,9.7,17v.23a19.7,19.7,0,0,1-7.11,15.17v2.08a1.11,1.11,0,0,0,.14.54l8,14.13A44.09,44.09,0,0,1,98.34,111v44.28A25.91,25.91,0,0,1,72.46,181.2ZM81.46,56.57c1.07-10-19.86-8.21-19.86-8.21l3.58-15.48S91.93,28.58,97,27.47s8.07-4.75,7-11.45-9.25-6.21-9.25-6.21S79,12.62,66.46,14.4s-16.39,10-16.39,10L44,48.53H26c-4.42,0-9,1.36-9.77,8.49s8.15,9.67,8.15,9.67v7.9a18.77,18.77,0,0,1-2.8,9.77L13,99c-2.07,3.63-3,8.9-3,13.06V156.3c0,3.24,14,14.9,17.22,14.9H73.79c3.25,0,14.56-13,14.56-16.2V110.72c0-4.16-3.36-14.22-5.42-17.84l-5.44-9.11c-1.82-3.21-2.88-5.54-2.88-9.2V66.69C83.66,64.42,81.46,56.57,81.46,56.57Z"/><path id="Outline" class="cls-5" d="M108.26,16.65A12.71,12.71,0,0,0,95.68,6a13.21,13.21,0,0,0-2,.16L61.13,11.58a19.73,19.73,0,0,0-15.6,13.85L40.31,43.34H26.59A13.77,13.77,0,0,0,12.84,57.09v.23a13.83,13.83,0,0,0,7.11,12v5.23A7.15,7.15,0,0,1,19,78.15L11,92.21A38.15,38.15,0,0,0,6,111v44.28A19.91,19.91,0,0,0,25.89,175.2H72.46a19.9,19.9,0,0,0,19.88-19.88V111a38.14,38.14,0,0,0-5-18.83l-8-14.09a7.1,7.1,0,0,1-1-3.55V69.36a13.83,13.83,0,0,0,7.11-12v-.23A13.76,13.76,0,0,0,71.74,43.34H66.88L69,36.15l28.79-4.81a12.76,12.76,0,0,0,10.49-14.69Zm-11.8,6.79-12.11,2-16.14,2.7-3.79.63a2.73,2.73,0,0,0-2.19,1.94l-.63,2.15L56.83,49.24l-.61,2.1H71.74a5.74,5.74,0,0,1,5.75,5.75v.23a5.76,5.76,0,0,1-4.19,5.53h0a4,4,0,0,0-2.91,3.85v7.87a15.23,15.23,0,0,0,2,7.52l8,14.08A30.09,30.09,0,0,1,84.34,111v44.28A11.88,11.88,0,0,1,72.46,167.2H25.89A11.9,11.9,0,0,1,14,155.32V111a30.14,30.14,0,0,1,3.94-14.87l8-14.06a15.23,15.23,0,0,0,2-7.52v-7.9A4,4,0,0,0,25,62.85h0a5.77,5.77,0,0,1-4.2-5.53v-.23a5.74,5.74,0,0,1,5.75-5.75H46.31l.61-2.1,4.77-16.36,1.52-5.21a11.61,11.61,0,0,1,9.23-8.2L67,18.71,83.13,16l11.77-2a5.22,5.22,0,0,1,.78-.06,4.75,4.75,0,0,1,.78,9.44Z"/><path id="Shadow" class="cls-6" d="M60.7,155.4H13v9.16a15.85,15.85,0,0,0,12.91,6.64H72.46A15.88,15.88,0,0,0,88,158.45l-.88-55a183.35,183.35,0,0,0-6.26-18l-4.35,4s6.18,7.94,3.41,48.06A19.3,19.3,0,0,1,60.7,155.4Z"/><g id="Typo"><path class="cls-2" d="M152.78,102.68l1,36.8H133.36V74.34H162l11.79,35.05h.46l10.22-35h29.57v65.14H192.71l.64-36.62-.55-.09-12.15,36.71H165.2l-12-36.8Z"/><path class="cls-2" d="M224.63,77.1a10.31,10.31,0,0,1,.87-4.19,10.93,10.93,0,0,1,2.4-3.45,11.61,11.61,0,0,1,3.54-2.34,10.8,10.8,0,0,1,4.32-.88,10,10,0,0,1,4.14.88,12,12,0,0,1,3.45,2.34,11.06,11.06,0,0,1,2.39,3.45,10.32,10.32,0,0,1,.88,4.19,10.54,10.54,0,0,1-.88,4.28,10.3,10.3,0,0,1-2.39,3.4A11.91,11.91,0,0,1,239.9,87a10.44,10.44,0,0,1-4.14.82,11.3,11.3,0,0,1-4.32-.82,11.58,11.58,0,0,1-3.54-2.26,10.19,10.19,0,0,1-2.4-3.4A10.53,10.53,0,0,1,224.63,77.1Zm.37,14h21.25v48.4H225Z"/><path class="cls-2" d="M256.09,69.92H277.8v69.56H256.09Z"/><path class="cls-2" d="M308.81,118.41v21.07H287.56V69.92h21.25v39.66h.27l11.5-18.5h24.66L329.6,112.89l15.55,26.59H320.4l-11.32-21.07Z"/><path class="cls-2" d="M362.08,137.55l-19.6-46.47H366l7.18,25.49h.37l6.34-25.49h22.73l-19.87,51.34a48.67,48.67,0,0,1-4,8.05,25.48,25.48,0,0,1-5.15,6,20.45,20.45,0,0,1-6.95,3.77,30.51,30.51,0,0,1-9.34,1.29c-1.1,0-2.23-.05-3.4-.14s-2.29-.22-3.36-.37l-3-.46a21.18,21.18,0,0,1-2.3-.51L348,142.51a19.57,19.57,0,0,0,6,1.11,8,8,0,0,0,5.2-1.43,8.61,8.61,0,0,0,2.53-3.62Z"/></g></g></g></svg>